<svg width="78" height="23" viewBox="0 0 78 23" fill="none" xmlns="http://www.w3.org/2000/svg">
<path d="M27.6571 8.10194V19H30.5969V8.10194H34.6041V5.63022H23.6499V8.10194H27.6571ZM36.1396 14.1689C36.1396 13.7819 36.1771 13.4012 36.252 13.0267C36.3269 12.6522 36.4517 12.3214 36.6265 12.0342C36.8137 11.7471 37.0571 11.5162 37.3567 11.3414C37.6563 11.1541 38.0308 11.0605 38.4803 11.0605C38.9297 11.0605 39.3042 11.1541 39.6038 11.3414C39.9159 11.5162 40.1593 11.7471 40.334 12.0342C40.5213 12.3214 40.6524 12.6522 40.7273 13.0267C40.8022 13.4012 40.8396 13.7819 40.8396 14.1689C40.8396 14.5559 40.8022 14.9366 40.7273 15.3111C40.6524 15.6732 40.5213 16.004 40.334 16.3036C40.1593 16.5907 39.9159 16.8216 39.6038 16.9964C39.3042 17.1712 38.9297 17.2586 38.4803 17.2586C38.0308 17.2586 37.6563 17.1712 37.3567 16.9964C37.0571 16.8216 36.8137 16.5907 36.6265 16.3036C36.4517 16.004 36.3269 15.6732 36.252 15.3111C36.1771 14.9366 36.1396 14.5559 36.1396 14.1689ZM33.4806 14.1689C33.4806 14.9429 33.5992 15.642 33.8364 16.2661C34.0736 16.8903 34.4106 17.4271 34.8476 17.8765C35.2845 18.3134 35.8088 18.6505 36.4205 18.8876C37.0322 19.1248 37.7188 19.2434 38.4803 19.2434C39.2417 19.2434 39.9283 19.1248 40.54 18.8876C41.1642 18.6505 41.6947 18.3134 42.1317 17.8765C42.5686 17.4271 42.9056 16.8903 43.1428 16.2661C43.38 15.642 43.4986 14.9429 43.4986 14.1689C43.4986 13.3949 43.38 12.6959 43.1428 12.0717C42.9056 11.435 42.5686 10.8982 42.1317 10.4613C41.6947 10.0119 41.1642 9.66862 40.54 9.43143C39.9283 9.18176 39.2417 9.05693 38.4803 9.05693C37.7188 9.05693 37.0322 9.18176 36.4205 9.43143C35.8088 9.66862 35.2845 10.0119 34.8476 10.4613C34.4106 10.8982 34.0736 11.435 33.8364 12.0717C33.5992 12.6959 33.4806 13.3949 33.4806 14.1689ZM47.5868 14.1689C47.5868 13.7819 47.6243 13.4012 47.6992 13.0267C47.7741 12.6522 47.8989 12.3214 48.0737 12.0342C48.2609 11.7471 48.5044 11.5162 48.804 11.3414C49.1036 11.1541 49.4781 11.0605 49.9275 11.0605C50.3769 11.0605 50.7514 11.1541 51.051 11.3414C51.3631 11.5162 51.6065 11.7471 51.7813 12.0342C51.9685 12.3214 52.0996 12.6522 52.1745 13.0267C52.2494 13.4012 52.2869 13.7819 52.2869 14.1689C52.2869 14.5559 52.2494 14.9366 52.1745 15.3111C52.0996 15.6732 51.9685 16.004 51.7813 16.3036C51.6065 16.5907 51.3631 16.8216 51.051 16.9964C50.7514 17.1712 50.3769 17.2586 49.9275 17.2586C49.4781 17.2586 49.1036 17.1712 48.804 16.9964C48.5044 16.8216 48.2609 16.5907 48.0737 16.3036C47.8989 16.004 47.7741 15.6732 47.6992 15.3111C47.6243 14.9366 47.5868 14.5559 47.5868 14.1689ZM44.9279 14.1689C44.9279 14.9429 45.0465 15.642 45.2836 16.2661C45.5208 16.8903 45.8579 17.4271 46.2948 17.8765C46.7317 18.3134 47.256 18.6505 47.8677 18.8876C48.4794 19.1248 49.166 19.2434 49.9275 19.2434C50.689 19.2434 51.3756 19.1248 51.9873 18.8876C52.6114 18.6505 53.142 18.3134 53.5789 17.8765C54.0158 17.4271 54.3529 16.8903 54.5901 16.2661C54.8272 15.642 54.9458 14.9429 54.9458 14.1689C54.9458 13.3949 54.8272 12.6959 54.5901 12.0717C54.3529 11.435 54.0158 10.8982 53.5789 10.4613C53.142 10.0119 52.6114 9.66862 51.9873 9.43143C51.3756 9.18176 50.689 9.05693 49.9275 9.05693C49.166 9.05693 48.4794 9.18176 47.8677 9.43143C47.256 9.66862 46.7317 10.0119 46.2948 10.4613C45.8579 10.8982 45.5208 11.435 45.2836 12.0717C45.0465 12.6959 44.9279 13.3949 44.9279 14.1689ZM56.7496 5.63022V19H59.4086V5.63022H56.7496ZM64.2362 7.82107V5.63022H61.5772V7.82107H64.2362ZM61.5772 9.31908V19H64.2362V9.31908H61.5772ZM68.6892 14.1689C68.6892 13.7819 68.7267 13.4012 68.8016 13.0267C68.8765 12.6522 69.0013 12.3214 69.1761 12.0342C69.3633 11.7471 69.6068 11.5162 69.9064 11.3414C70.206 11.1541 70.5805 11.0605 71.0299 11.0605C71.4793 11.0605 71.8538 11.1541 72.1534 11.3414C72.4655 11.5162 72.7089 11.7471 72.8837 12.0342C73.0709 12.3214 73.202 12.6522 73.2769 13.0267C73.3518 13.4012 73.3893 13.7819 73.3893 14.1689C73.3893 14.5559 73.3518 14.9366 73.2769 15.3111C73.202 15.6732 73.0709 16.004 72.8837 16.3036C72.7089 16.5907 72.4655 16.8216 72.1534 16.9964C71.8538 17.1712 71.4793 17.2586 71.0299 17.2586C70.5805 17.2586 70.206 17.1712 69.9064 16.9964C69.6068 16.8216 69.3633 16.5907 69.1761 16.3036C69.0013 16.004 68.8765 15.6732 68.8016 15.3111C68.7267 14.9366 68.6892 14.5559 68.6892 14.1689ZM66.0303 14.1689C66.0303 14.9429 66.1489 15.642 66.386 16.2661C66.6232 16.8903 66.9603 17.4271 67.3972 17.8765C67.8341 18.3134 68.3584 18.6505 68.9701 18.8876C69.5818 19.1248 70.2684 19.2434 71.0299 19.2434C71.7914 19.2434 72.478 19.1248 73.0897 18.8876C73.7138 18.6505 74.2444 18.3134 74.6813 17.8765C75.1182 17.4271 75.4553 16.8903 75.6925 16.2661C75.9296 15.642 76.0482 14.9429 76.0482 14.1689C76.0482 13.3949 75.9296 12.6959 75.6925 12.0717C75.4553 11.435 75.1182 10.8982 74.6813 10.4613C74.2444 10.0119 73.7138 9.66862 73.0897 9.43143C72.478 9.18176 71.7914 9.05693 71.0299 9.05693C70.2684 9.05693 69.5818 9.18176 68.9701 9.43143C68.3584 9.66862 67.8341 10.0119 67.3972 10.4613C66.9603 10.8982 66.6232 11.435 66.386 12.0717C66.1489 12.6959 66.0303 13.3949 66.0303 14.1689Z" fill="#19293E"/>
<circle cx="7.80211" cy="15.604" r="3.12086" fill="#49BEE3"/>
<circle cx="12.4834" cy="8.58205" r="3.12086" fill="#F6C244"/>
<circle cx="3.12086" cy="8.58253" r="3.12086" fill="#1B57A5"/>
</svg>
